<svg version="1.1" baseProfile="full" xmlns="http://www.w3.org/2000/svg" xmlns:xlink="http://www.w3.org/1999/xlink"
  style="width:100%;height:100%" id="react-sketch-canvas" viewBox="0 0 702 400" width="702" height="400">
  <g id="react-sketch-canvas__eraser-stroke-group" display="none">
    <rect id="react-sketch-canvas__mask-background" x="0" y="0" width="100%" height="100%" fill="white"></rect>
  </g>
  <defs></defs>
  <g id="react-sketch-canvas__canvas-background-group">
    <rect id="react-sketch-canvas__canvas-background" x="0" y="0" width="100%" height="100%" fill="white"></rect>
  </g>
  <g id="react-sketch-canvas__stroke-group-0" mask="url(#react-sketch-canvas__eraser-mask-0)">
    <path id="react-sketch-canvas__0"
      d="M 149,284.5 C 149.2,284.9 149.8,285.3 150, 286.5 C 150.2,287.7 150,288.5 150, 290.5 C 150,292.5 150,294.5 150, 296.5 C 150,298.5 150.6,299.3 150, 300.5 C 149.4,301.7 148,301.9 147, 302.5 C 146,303.1 146.4,302.7 145, 303.5 C 143.6,304.3 141.8,305.9 140, 306.5 C 138.2,307.1 139.8,306.7 136, 306.5 C 132.2,306.3 125.4,306.5 121, 305.5 C 116.6,304.5 116.2,302.5 114, 301.5 C 111.8,300.5 112.2,301.3 110, 300.5 C 107.8,299.7 106.4,300.1 103, 297.5 C 99.6,294.9 95.6,289.9 93, 287.5 C 90.4,285.1 91.4,287.1 90, 285.5 C 88.6,283.9 87.2,281.7 86, 279.5 C 84.8,277.3 84.6,276.7 84, 274.5 C 83.4,272.3 83,272.5 83, 268.5 C 83,264.5 83.4,258.3 84, 254.5 C 84.6,250.7 84.8,251.7 86, 249.5 C 87.2,247.3 88.2,246.5 90, 243.5 C 91.8,240.5 93.6,236.7 95, 234.5 C 96.4,232.3 95.8,233.3 97, 232.5 C 98.2,231.7 99.8,230.9 101, 230.5 C 102.2,230.1 102.2,230.5 103, 230.5 C 103.8,230.5 104.4,230.5 105, 230.5 C 105.6,230.5 105.2,230.5 106, 230.5 C 106.8,230.5 108,230.3 109, 230.5 C 110,230.7 110,231.3 111, 231.5 C 112,231.7 113,231.5 114, 231.5 C 115,231.5 115,231.1 116, 231.5 C 117,231.9 117.6,232.9 119, 233.5 C 120.4,234.1 122,234.3 123, 234.5 C 124,234.7 123.8,234.5 124, 234.5"
      fill="none" stroke-linecap="round" stroke="black" stroke-width="3"></path>
    <path id="react-sketch-canvas__1"
      d="M 181,272.5 C 180.6,272.3 180.6,272.5 179, 271.5 C 177.4,270.5 176.2,269.7 173, 267.5 C 169.8,265.3 166,263.1 163, 260.5 C 160,257.9 160,256.9 158, 254.5 C 156,252.1 154.2,249.7 153, 248.5 C 151.8,247.3 151.8,248.1 152, 248.5 C 152.2,248.9 153.4,249.5 154, 250.5 C 154.6,251.5 154.2,251.7 155, 253.5 C 155.8,255.3 157.2,257.5 158, 259.5 C 158.8,261.5 158.6,261.3 159, 263.5 C 159.4,265.7 159.6,268.1 160, 270.5 C 160.4,272.9 160.8,274.3 161, 275.5 C 161.2,276.7 161.6,276.1 161, 276.5 C 160.4,276.9 159,277.3 158, 277.5 C 157,277.7 156.8,277.5 156, 277.5 C 155.2,277.5 155,277.7 154, 277.5 C 153,277.3 152,276.9 151, 276.5 C 150,276.1 150,275.9 149, 275.5 C 148,275.1 147.6,275.3 146, 274.5 C 144.4,273.7 142.4,272.5 141, 271.5 C 139.6,270.5 140,270.5 139, 269.5 C 138,268.5 137,267.7 136, 266.5 C 135,265.3 134.4,264.3 134, 263.5 C 133.6,262.7 133.4,263.7 134, 262.5 C 134.6,261.3 136,258.9 137, 257.5 C 138,256.1 138,256.3 139, 255.5 C 140,254.7 141.2,254.3 142, 253.5 C 142.8,252.7 142.2,251.9 143, 251.5 C 143.8,251.1 145.2,251.5 146, 251.5 C 146.8,251.5 146.6,251.7 147, 251.5 C 147.4,251.3 147.4,250.7 148, 250.5 C 148.6,250.3 149.2,250.5 150, 250.5 C 150.8,250.5 150.8,250.5 152, 250.5 C 153.2,250.5 155,250.5 156, 250.5 C 157,250.5 156.4,250.5 157, 250.5 C 157.6,250.5 158.4,250.5 159, 250.5 C 159.6,250.5 159.4,250.5 160, 250.5 C 160.6,250.5 160.8,250.3 162, 250.5 C 163.2,250.7 165.2,251.3 166, 251.5"
      fill="none" stroke-linecap="round" stroke="black" stroke-width="3"></path>
    <path id="react-sketch-canvas__2"
      d="M 191,280.5 C 190.8,280.5 190.4,280.9 190, 280.5 C 189.6,280.1 189.4,279.1 189, 278.5 C 188.6,277.9 188.6,278.1 188, 277.5 C 187.4,276.9 186.6,276.1 186, 275.5 C 185.4,274.9 186.2,275.3 185, 274.5 C 183.8,273.7 181.6,272.5 180, 271.5 C 178.4,270.5 178,270.7 177, 269.5 C 176,268.3 175.6,266.7 175, 265.5 C 174.4,264.3 175.2,264.3 174, 263.5 C 172.8,262.7 170.4,262.3 169, 261.5 C 167.6,260.7 167.4,260.7 167, 259.5 C 166.6,258.3 167.4,256.9 167, 255.5 C 166.6,254.1 165.4,253.7 165, 252.5 C 164.6,251.3 165.2,251.1 165, 249.5 C 164.8,247.9 164,246.1 164, 244.5 C 164,242.9 164.2,242.5 165, 241.5 C 165.8,240.5 167.2,240.1 168, 239.5 C 168.8,238.9 168.4,239.3 169, 238.5 C 169.6,237.7 170.4,236.1 171, 235.5 C 171.6,234.9 171.4,235.5 172, 235.5 C 172.6,235.5 173,235.5 174, 235.5 C 175,235.5 176,235.1 177, 235.5 C 178,235.9 177.8,236.5 179, 237.5 C 180.2,238.5 181.6,239.3 183, 240.5 C 184.4,241.7 184.6,241.7 186, 243.5 C 187.4,245.3 188.6,247.7 190, 249.5 C 191.4,251.3 192.4,251.7 193, 252.5 C 193.6,253.3 193,253.1 193, 253.5 C 193,253.9 193.4,254.5 193, 254.5 C 192.6,254.5 192,254.3 191, 253.5 C 190,252.7 188.6,251.7 188, 250.5 C 187.4,249.3 188.2,248.5 188, 247.5 C 187.8,246.5 187.6,246.5 187, 245.5 C 186.4,244.5 186,244.1 185, 242.5 C 184,240.9 182.6,238.9 182, 237.5 C 181.4,236.1 182,236.5 182, 235.5 C 182,234.5 182,234.3 182, 232.5 C 182,230.7 181.4,228.3 182, 226.5 C 182.6,224.7 184,224.1 185, 223.5 C 186,222.9 185.8,223.5 187, 223.5 C 188.2,223.5 189.6,223.1 191, 223.5 C 192.4,223.9 192,224.5 194, 225.5 C 196,226.5 199.2,227.5 201, 228.5 C 202.8,229.5 202.2,230.1 203, 230.5 C 203.8,230.9 204.2,229.7 205, 230.5 C 205.8,231.3 205.2,232.3 207, 234.5 C 208.8,236.7 212,239.3 214, 241.5 C 216,243.7 216,244.1 217, 245.5 C 218,246.9 218.4,247.7 219, 248.5 C 219.6,249.3 219.6,248.7 220, 249.5 C 220.4,250.3 220.8,252.1 221, 252.5 C 221.2,252.9 220.8,252.1 221, 251.5 C 221.2,250.9 221.8,249.9 222, 249.5"
      fill="none" stroke-linecap="round" stroke="black" stroke-width="3"></path>
    <path id="react-sketch-canvas__3"
      d="M 233,245.5 C 233,245.3 233,244.9 233, 244.5 C 233,244.1 233,243.5 233, 243.5 C 233,243.5 233.4,244.9 233, 244.5 C 232.6,244.1 233,242.9 231, 241.5 C 229,240.1 225.6,239.1 223, 237.5 C 220.4,235.9 220,235.1 218, 233.5 C 216,231.9 215.2,231.1 213, 229.5 C 210.8,227.9 209.2,227.1 207, 225.5 C 204.8,223.9 203,222.5 202, 221.5 C 201,220.5 202.6,220.9 202, 220.5 C 201.4,220.1 199.4,219.5 199, 219.5 C 198.6,219.5 199.4,220.3 200, 220.5 C 200.6,220.7 201.2,220.5 202, 220.5 C 202.8,220.5 203.6,220.5 204, 220.5"
      fill="none" stroke-linecap="round" stroke="black" stroke-width="3"></path>
    <path id="react-sketch-canvas__4"
      d="M 242,246.5 C 241.8,246.3 241.8,246.3 241, 245.5 C 240.2,244.7 239,243.5 238, 242.5 C 237,241.5 237.6,241.7 236, 240.5 C 234.4,239.3 234,239.5 230, 236.5 C 226,233.5 222.6,229.9 216, 225.5 C 209.4,221.1 205.2,218.7 197, 214.5 C 188.8,210.3 183.6,207.9 175, 204.5 C 166.4,201.1 159.8,200.1 154, 197.5 C 148.2,194.9 148.6,193.5 146, 191.5 C 143.4,189.5 142.4,188.5 141, 187.5 C 139.6,186.5 139.2,186.7 139, 186.5 C 138.8,186.3 138.4,186.5 140, 186.5 C 141.6,186.5 145.6,186.5 147, 186.5"
      fill="none" stroke-linecap="round" stroke="black" stroke-width="3"></path>
    <path id="react-sketch-canvas__5"
      d="M 275,218.5 C 274.6,219.1 273.8,220.5 273, 221.5 C 272.2,222.5 271.4,221.9 271, 223.5 C 270.6,225.1 272,226.3 271, 229.5 C 270,232.7 268,236.5 266, 239.5 C 264,242.5 261.8,244.1 261, 244.5 C 260.2,244.9 263,241.9 262, 241.5 C 261,241.1 258,242.3 256, 242.5 C 254,242.7 253.6,242.7 252, 242.5 C 250.4,242.3 249.6,241.7 248, 241.5 C 246.4,241.3 245.6,242.1 244, 241.5 C 242.4,240.9 241.2,239.7 240, 238.5 C 238.8,237.3 238.8,236.3 238, 235.5 C 237.2,234.7 236.4,235.7 236, 234.5 C 235.6,233.3 235.4,231.7 236, 229.5 C 236.6,227.3 237.6,225.7 239, 223.5 C 240.4,221.3 241.8,220.1 243, 218.5 C 244.2,216.9 243.8,216.9 245, 215.5 C 246.2,214.1 247,213.1 249, 211.5 C 251,209.9 253.6,208.5 255, 207.5 C 256.4,206.5 254.2,206.9 256, 206.5 C 257.8,206.1 261,205.3 264, 205.5 C 267,205.7 268.4,206.7 271, 207.5 C 273.6,208.3 275.6,209.1 277, 209.5 C 278.4,209.9 276.8,208.9 278, 209.5 C 279.2,210.1 281.6,211.9 283, 212.5 C 284.4,213.1 284,211.3 285, 212.5 C 286,213.7 287.4,217.3 288, 218.5"
      fill="none" stroke-linecap="round" stroke="black" stroke-width="3"></path>
    <path id="react-sketch-canvas__6"
      d="M 325,240.5 C 325,240.3 325,240.1 325, 239.5 C 325,238.9 325.6,239.1 325, 237.5 C 324.4,235.9 322.8,233.3 322, 231.5 C 321.2,229.7 322.4,231.3 321, 228.5 C 319.6,225.7 317.2,220.9 315, 217.5 C 312.8,214.1 312.8,215.5 310, 211.5 C 307.2,207.5 304.4,202.3 301, 197.5 C 297.6,192.7 296.2,191.9 293, 187.5 C 289.8,183.1 288.8,179.5 285, 175.5 C 281.2,171.5 276.6,169.5 274, 167.5 C 271.4,165.5 272.6,166.3 272, 165.5 C 271.4,164.7 270.6,164.1 271, 163.5 C 271.4,162.9 272.8,162.9 274, 162.5 C 275.2,162.1 275.4,161.9 277, 161.5 C 278.6,161.1 280.8,160.7 282, 160.5 C 283.2,160.3 280,159.7 283, 160.5 C 286,161.3 293,162.9 297, 164.5 C 301,166.1 300.6,167.7 303, 168.5 C 305.4,169.3 304.2,167.7 309, 168.5 C 313.8,169.3 322.2,171.3 327, 172.5 C 331.8,173.7 331.2,174.1 333, 174.5 C 334.8,174.9 335.4,174.9 336, 174.5 C 336.6,174.1 337.4,175.3 336, 172.5 C 334.6,169.7 336.2,167.3 329, 160.5 C 321.8,153.7 312.2,146.5 300, 138.5 C 287.8,130.5 283.4,129.5 268, 120.5 C 252.6,111.5 232.2,99.1 223, 93.5 C 213.8,87.89999999999999 221.8,92.7 222, 92.5 C 222.2,92.3 222.6,91.5 224, 92.5 C 225.4,93.5 227.2,95.5 229, 97.5 C 230.8,99.5 231.2,100.7 233, 102.5 C 234.8,104.3 233.2,102.5 238, 106.5 C 242.8,110.5 249.4,115.9 257, 122.5 C 264.6,129.1 265.8,131.9 276, 139.5 C 286.2,147.1 298.6,155.3 308, 160.5 C 317.4,165.7 312,160.1 323, 165.5 C 334,170.9 349.8,180.5 363, 187.5 C 376.2,194.5 379.8,194.7 389, 200.5 C 398.2,206.3 403.8,212.3 409, 216.5 C 414.2,220.7 412.8,219.9 415, 221.5 C 417.2,223.1 419,223.5 420, 224.5 C 421,225.5 420.2,226.3 420, 226.5 C 419.8,226.7 419.6,225.5 419, 225.5 C 418.4,225.5 418,226.1 417, 226.5 C 416,226.9 415.2,227.7 414, 227.5 C 412.8,227.3 411.8,226.1 411, 225.5 C 410.2,224.9 410.8,225.7 410, 224.5 C 409.2,223.3 407.6,220.7 407, 219.5 C 406.4,218.3 407,218.7 407, 218.5"
      fill="none" stroke-linecap="round" stroke="black" stroke-width="3"></path>
    <path id="react-sketch-canvas__7"
      d="M 438,186.5 C 438,186.3 438.2,186.1 438, 185.5 C 437.8,184.9 438.8,185.1 437, 183.5 C 435.2,181.9 431.4,179.3 429, 177.5 C 426.6,175.7 428,176.3 425, 174.5 C 422,172.7 417.4,170.7 414, 168.5 C 410.6,166.3 411.2,166.5 408, 163.5 C 404.8,160.5 401,156.7 398, 153.5 C 395,150.3 394.4,149.1 393, 147.5 C 391.6,145.9 391.6,145.9 391, 145.5 C 390.4,145.1 390.2,143.9 390, 145.5 C 389.8,147.1 389.4,151.1 390, 153.5 C 390.6,155.9 392,156.1 393, 157.5 C 394,158.9 393.4,157.5 395, 160.5 C 396.6,163.5 398.6,169.3 401, 172.5 C 403.4,175.7 405.4,173.5 407, 176.5 C 408.6,179.5 408.6,185.1 409, 187.5 C 409.4,189.9 409.8,188.3 409, 188.5 C 408.2,188.7 406.2,188.7 405, 188.5 C 403.8,188.3 404.2,187.9 403, 187.5 C 401.8,187.1 402.4,187.9 399, 186.5 C 395.6,185.1 389.8,182.3 386, 180.5 C 382.2,178.7 381.8,178.7 380, 177.5 C 378.2,176.3 378,175.3 377, 174.5 C 376,173.7 375.4,173.9 375, 173.5 C 374.6,173.1 374.8,172.7 375, 172.5 C 375.2,172.3 375.4,172.9 376, 172.5 C 376.6,172.1 377.4,171.1 378, 170.5 C 378.6,169.9 378.8,169.7 379, 169.5"
      fill="none" stroke-linecap="round" stroke="black" stroke-width="3"></path>
    <path id="react-sketch-canvas__8"
      d="M 446,173.5 C 446.2,173.7 447,174.3 447, 174.5 C 447,174.7 446.2,174.7 446, 174.5 C 445.8,174.3 446.8,174.3 446, 173.5 C 445.2,172.7 444,172.5 442, 170.5 C 440,168.5 438.2,165.9 436, 163.5 C 433.8,161.1 434.2,161.5 431, 158.5 C 427.8,155.5 423.2,151.5 420, 148.5 C 416.8,145.5 416.8,145.9 415, 143.5 C 413.2,141.1 411.4,138.3 411, 136.5 C 410.6,134.7 413,135.1 413, 134.5 C 413,133.9 411.2,133.7 411, 133.5 C 410.8,133.3 410.8,133.5 412, 133.5 C 413.2,133.5 415.2,133.1 417, 133.5 C 418.8,133.9 419,134.7 421, 135.5 C 423,136.3 424.6,136.9 427, 137.5 C 429.4,138.1 428.8,137.5 433, 138.5 C 437.2,139.5 442.6,141.3 448, 142.5 C 453.4,143.7 455.2,142.7 460, 144.5 C 464.8,146.3 468.8,150.1 472, 151.5 C 475.2,152.9 474.4,150.7 476, 151.5 C 477.6,152.3 478.6,154.1 480, 155.5 C 481.4,156.9 482.2,157.7 483, 158.5 C 483.8,159.3 484,159.7 484, 159.5 C 484,159.3 483.6,158.3 483, 157.5 C 482.4,156.7 481.8,156.5 481, 155.5 C 480.2,154.5 480,153.5 479, 152.5 C 478,151.5 476.6,150.9 476, 150.5"
      fill="none" stroke-linecap="round" stroke="black" stroke-width="3"></path>
    <path id="react-sketch-canvas__9"
      d="M 471,106.5 C 472.8,106.9 476.2,107.5 480, 108.5 C 483.8,109.5 487,109.9 490, 111.5 C 493,113.1 492.6,113.7 495, 116.5 C 497.4,119.3 499.8,121.5 502, 125.5 C 504.2,129.5 504.8,131.9 506, 136.5 C 507.2,141.1 508,145.3 508, 148.5 C 508,151.7 507.4,151.1 506, 152.5 C 504.6,153.9 502.2,154.7 501, 155.5 C 499.8,156.3 501.8,156.3 500, 156.5 C 498.2,156.7 495.8,156.9 492, 156.5 C 488.2,156.1 485.4,155.7 481, 154.5 C 476.6,153.3 473.6,151.9 470, 150.5 C 466.4,149.1 465.2,149.1 463, 147.5 C 460.8,145.9 460.2,144.7 459, 142.5 C 457.8,140.3 456.8,138.7 457, 136.5 C 457.2,134.3 459.4,133.3 460, 131.5 C 460.6,129.7 459.6,128.9 460, 127.5 C 460.4,126.1 461.4,125.3 462, 124.5 C 462.6,123.7 462.8,123.7 463, 123.5"
      fill="none" stroke-linecap="round" stroke="black" stroke-width="3"></path>
    <path id="react-sketch-canvas__10"
      d="M 494,109.5 C 494,109.1 494.4,108.1 494, 107.5 C 493.6,106.9 492.6,107.3 492, 106.5 C 491.4,105.7 492,105.5 491, 103.5 C 490,101.5 488.4,99.1 487, 96.5 C 485.6,93.9 485.2,92.7 484, 90.5 C 482.8,88.3 482,88.5 481, 85.5 C 480,82.5 479.4,78.3 479, 75.5 C 478.6,72.7 478.4,73.5 479, 71.5 C 479.6,69.5 481.2,66.7 482, 65.5 C 482.8,64.3 482.6,65.5 483, 65.5 C 483.4,65.5 483.6,65.5 484, 65.5 C 484.4,65.5 483.8,65.5 485, 65.5 C 486.2,65.5 488.6,65.5 490, 65.5 C 491.4,65.5 490,64.5 492, 65.5 C 494,66.5 497.4,68.9 500, 70.5 C 502.6,72.1 502.6,70.9 505, 73.5 C 507.4,76.1 509.6,79.1 512, 83.5 C 514.4,87.9 514.8,91.1 517, 95.5 C 519.2,99.9 521,101.7 523, 105.5 C 525,109.3 526,112.1 527, 114.5 C 528,116.9 527.6,115.9 528, 117.5 C 528.4,119.1 528.8,120.9 529, 122.5 C 529.2,124.1 529,124.5 529, 125.5 C 529,126.5 529,126.5 529, 127.5 C 529,128.5 529,129.7 529, 130.5 C 529,131.3 529,131.1 529, 131.5 C 529,131.9 529,132.1 529, 132.5 C 529,132.9 529,132.9 529, 133.5 C 529,134.1 529,134.9 529, 135.5 C 529,136.1 528.8,136.1 529, 136.5 C 529.2,136.9 529.6,137.1 530, 137.5 C 530.4,137.9 530.8,138.1 531, 138.5 C 531.2,138.9 531,139.1 531, 139.5 C 531,139.9 531,140.1 531, 140.5 C 531,140.9 531,141.1 531, 141.5 C 531,141.9 531.2,141.9 531, 142.5 C 530.8,143.1 530.2,143.9 530, 144.5 C 529.8,145.1 529.6,144.9 530, 145.5 C 530.4,146.1 531.4,146.9 532, 147.5 C 532.6,148.1 532.6,148.3 533, 148.5 C 533.4,148.7 533.8,148.3 534, 148.5 C 534.2,148.7 534,149.1 534, 149.5 C 534,149.9 534,149.9 534, 150.5 C 534,151.1 534,151.9 534, 152.5 C 534,153.1 533.6,153.3 534, 153.5 C 534.4,153.7 535.6,153.3 536, 153.5 C 536.4,153.7 536,154.1 536, 154.5 C 536,154.9 536,155.1 536, 155.5 C 536,155.9 536,156.1 536, 156.5 C 536,156.9 535.8,157.1 536, 157.5 C 536.2,157.9 536.8,157.9 537, 158.5 C 537.2,159.1 537,159.9 537, 160.5 C 537,161.1 537,160.9 537, 161.5 C 537,162.1 537,162.7 537, 163.5 C 537,164.3 537,164.9 537, 165.5 C 537,166.1 536.8,165.9 537, 166.5 C 537.2,167.1 538,167.7 538, 168.5 C 538,169.3 537.2,169.9 537, 170.5 C 536.8,171.1 537,170.9 537, 171.5 C 537,172.1 537,172.7 537, 173.5 C 537,174.3 537,174.7 537, 175.5 C 537,176.3 537,176.7 537, 177.5 C 537,178.3 537,178.9 537, 179.5 C 537,180.1 537,179.9 537, 180.5 C 537,181.1 537,181.9 537, 182.5 C 537,183.1 536.8,182.9 537, 183.5 C 537.2,184.1 537.8,184.9 538, 185.5 C 538.2,186.1 538,186.1 538, 186.5 C 538,186.9 538,186.9 538, 187.5 C 538,188.1 538,188.9 538, 189.5 C 538,190.1 538,190.1 538, 190.5 C 538,190.9 538,190.9 538, 191.5 C 538,192.1 537.8,192.9 538, 193.5 C 538.2,194.1 538.8,194.1 539, 194.5 C 539.2,194.9 539,195.1 539, 195.5 C 539,195.9 539,196.1 539, 196.5 C 539,196.9 538.8,196.9 539, 197.5 C 539.2,198.1 540,199.1 540, 199.5 C 540,199.9 539.2,199.3 539, 199.5 C 538.8,199.7 539,200.1 539, 200.5 C 539,200.9 539,201.1 539, 201.5 C 539,201.9 538.8,201.9 539, 202.5 C 539.2,203.1 539.8,203.9 540, 204.5 C 540.2,205.1 540,205.1 540, 205.5 C 540,205.9 540,206.1 540, 206.5 C 540,206.9 540.2,207.1 540, 207.5 C 539.8,207.9 539.2,208.1 539, 208.5 C 538.8,208.9 539,208.9 539, 209.5 C 539,210.1 539,210.7 539, 211.5 C 539,212.3 539,212.9 539, 213.5 C 539,214.1 539,213.7 539, 214.5 C 539,215.3 538.8,216.7 539, 217.5 C 539.2,218.3 539.6,217.9 540, 218.5 C 540.4,219.1 540.6,219.9 541, 220.5 C 541.4,221.1 541.6,221.1 542, 221.5 C 542.4,221.9 542.8,222.1 543, 222.5 C 543.2,222.9 543,223.1 543, 223.5 C 543,223.9 543,223.9 543, 224.5 C 543,225.1 542.8,226.1 543, 226.5 C 543.2,226.9 543.8,226.3 544, 226.5 C 544.2,226.7 544,226.9 544, 227.5 C 544,228.1 544,228.9 544, 229.5 C 544,230.1 544,229.9 544, 230.5 C 544,231.1 544.2,231.9 544, 232.5 C 543.8,233.1 543.2,232.9 543, 233.5 C 542.8,234.1 543,234.9 543, 235.5 C 543,236.1 543.2,236.1 543, 236.5 C 542.8,236.9 542.2,237.1 542, 237.5 C 541.8,237.9 541.8,238.1 542, 238.5 C 542.2,238.9 542.8,239.1 543, 239.5 C 543.2,239.9 543,240.1 543, 240.5 C 543,240.9 543,241.1 543, 241.5 C 543,241.9 543.2,242.1 543, 242.5 C 542.8,242.9 542.4,243.1 542, 243.5 C 541.6,243.9 541.2,244.1 541, 244.5 C 540.8,244.9 540.8,245.1 541, 245.5 C 541.2,245.9 541.6,245.9 542, 246.5 C 542.4,247.1 542.8,247.9 543, 248.5 C 543.2,249.1 543,248.9 543, 249.5 C 543,250.1 543,250.9 543, 251.5 C 543,252.1 543,252.1 543, 252.5 C 543,252.9 543,253.1 543, 253.5 C 543,253.9 543.2,254.3 543, 254.5 C 542.8,254.7 542.2,254.3 542, 254.5 C 541.8,254.7 542,255.1 542, 255.5 C 542,255.9 542,255.9 542, 256.5 C 542,257.1 542,257.9 542, 258.5 C 542,259.1 542,259.1 542, 259.5 C 542,259.9 542,260.1 542, 260.5 C 542,260.9 542,261.1 542, 261.5 C 542,261.9 541.8,262.1 542, 262.5 C 542.2,262.9 542.8,263.1 543, 263.5 C 543.2,263.9 543,263.9 543, 264.5 C 543,265.1 543,265.9 543, 266.5 C 543,267.1 543,266.9 543, 267.5 C 543,268.1 543,268.7 543, 269.5 C 543,270.3 543,270.9 543, 271.5 C 543,272.1 543,272.1 543, 272.5 C 543,272.9 543,273.1 543, 273.5 C 543,273.9 543,274.1 543, 274.5 C 543,274.9 543,274.9 543, 275.5 C 543,276.1 543,276.9 543, 277.5 C 543,278.1 543,277.9 543, 278.5 C 543,279.1 542.8,279.9 543, 280.5 C 543.2,281.1 543.8,280.9 544, 281.5 C 544.2,282.1 544,282.7 544, 283.5 C 544,284.3 544,284.7 544, 285.5 C 544,286.3 544,286.7 544, 287.5 C 544,288.3 543.8,288.1 544, 289.5 C 544.2,290.9 544.8,292.7 545, 294.5 C 545.2,296.3 545,297.1 545, 298.5 C 545,299.9 545,300.3 545, 301.5 C 545,302.7 545,303.5 545, 304.5 C 545,305.5 545,304.9 545, 306.5 C 545,308.1 545,310.7 545, 312.5 C 545,314.3 545.2,314.3 545, 315.5 C 544.8,316.7 544.2,317.3 544, 318.5 C 543.8,319.7 544,320.5 544, 321.5 C 544,322.5 544,322.7 544, 323.5 C 544,324.3 544,324.5 544, 325.5 C 544,326.5 544,327.5 544, 328.5 C 544,329.5 544,329.9 544, 330.5 C 544,331.1 544,331.1 544, 331.5 C 544,331.9 544,332.1 544, 332.5 C 544,332.9 544,332.9 544, 333.5 C 544,334.1 544,334.9 544, 335.5 C 544,336.1 544,336.3 544, 336.5"
      fill="none" stroke-linecap="round" stroke="black" stroke-width="3"></path>
    <path id="react-sketch-canvas__11"
      d="M 277,307.5 C 277.2,307.5 277.2,307.5 278, 307.5 C 278.8,307.5 280.2,307.7 281, 307.5 C 281.8,307.3 281.4,306.7 282, 306.5 C 282.6,306.3 282.2,306.7 284, 306.5 C 285.8,306.3 279.2,306.3 291, 305.5 C 302.8,304.7 320.2,303.5 343, 302.5 C 365.8,301.5 383.4,301.1 405, 300.5 C 426.6,299.9 437.6,299.7 451, 299.5 C 464.4,299.3 463.2,299.5 472, 299.5 C 480.8,299.5 488.2,299.5 495, 299.5 C 501.8,299.5 502.8,299.5 506, 299.5 C 509.2,299.5 509.2,299.5 511, 299.5 C 512.8,299.5 513.4,299.5 515, 299.5 C 516.6,299.5 517.4,299.5 519, 299.5 C 520.6,299.5 521.6,299.5 523, 299.5 C 524.4,299.5 525.2,299.3 526, 299.5 C 526.8,299.7 526.8,300.3 527, 300.5"
      fill="none" stroke-linecap="round" stroke="black" stroke-width="3"></path>
    <path id="react-sketch-canvas__12"
      d="M 595,302.5 C 594.8,302.7 594.8,302.5 594, 303.5 C 593.2,304.5 592.2,305.9 591, 307.5 C 589.8,309.1 589.6,309.7 588, 311.5 C 586.4,313.3 585.2,314.5 583, 316.5 C 580.8,318.5 579.2,319.5 577, 321.5 C 574.8,323.5 576.2,323.5 572, 326.5 C 567.8,329.5 560.2,334.1 556, 336.5 C 551.8,338.9 553,338.1 551, 338.5 C 549,338.9 550.4,339.5 546, 338.5 C 541.6,337.5 533.6,335.3 529, 333.5 C 524.4,331.7 526.4,332.7 523, 329.5 C 519.6,326.3 515,321.3 512, 317.5 C 509,313.7 509.6,313.3 508, 310.5 C 506.4,307.7 505.4,306.7 504, 303.5 C 502.6,300.3 502,298.7 501, 294.5 C 500,290.3 499.2,285.3 499, 282.5 C 498.8,279.7 499,281.7 500, 280.5 C 501,279.3 502.4,277.7 504, 276.5 C 505.6,275.3 506.8,274.9 508, 274.5 C 509.2,274.1 509.2,274.5 510, 274.5 C 510.8,274.5 511.2,274.7 512, 274.5 C 512.8,274.3 513,273.7 514, 273.5 C 515,273.3 516.4,273.5 517, 273.5"
      fill="none" stroke-linecap="round" stroke="black" stroke-width="3"></path>
    <path id="react-sketch-canvas__13"
      d="M 613,283.5 C 612.8,283.3 612.6,283.1 612, 282.5 C 611.4,281.9 610.6,281.1 610, 280.5 C 609.4,279.9 609.6,280.1 609, 279.5 C 608.4,278.9 607.6,278.3 607, 277.5 C 606.4,276.7 606.4,276.5 606, 275.5 C 605.6,274.5 605.6,273.9 605, 272.5 C 604.4,271.1 603.6,269.5 603, 268.5 C 602.4,267.5 602.4,268.1 602, 267.5 C 601.6,266.9 601.2,266.1 601, 265.5 C 600.8,264.9 601.2,264.9 601, 264.5 C 600.8,264.1 600.2,263.5 600, 263.5 C 599.8,263.5 600,264.1 600, 264.5 C 600,264.9 600,265.1 600, 265.5 C 600,265.9 599.8,266.1 600, 266.5 C 600.2,266.9 600.8,267.1 601, 267.5 C 601.2,267.9 601,267.9 601, 268.5 C 601,269.1 601.2,269.9 601, 270.5 C 600.8,271.1 600.2,270.9 600, 271.5 C 599.8,272.1 600.6,272.1 600, 273.5 C 599.4,274.9 598.2,276.9 597, 278.5 C 595.8,280.1 595,280.5 594, 281.5 C 593,282.5 593.6,282.7 592, 283.5 C 590.4,284.3 588,284.9 586, 285.5 C 584,286.1 583.6,286.3 582, 286.5 C 580.4,286.7 579,286.7 578, 286.5 C 577,286.3 577.4,285.9 577, 285.5 C 576.6,285.1 576.6,285.3 576, 284.5 C 575.4,283.7 574.4,282.7 574, 281.5 C 573.6,280.3 574,279.3 574, 278.5 C 574,277.7 573.6,278.3 574, 277.5 C 574.4,276.7 575.4,275.3 576, 274.5 C 576.6,273.7 575.6,274.3 577, 273.5 C 578.4,272.7 581,271.3 583, 270.5 C 585,269.7 584.6,269.9 587, 269.5 C 589.4,269.1 593,268.7 595, 268.5 C 597,268.3 596.6,268.5 597, 268.5"
      fill="none" stroke-linecap="round" stroke="black" stroke-width="3"></path>
    <path id="react-sketch-canvas__14"
      d="M 597,268.5 C 596.8,268.3 596.6,268.1 596, 267.5 C 595.4,266.9 594.4,266.1 594, 265.5 C 593.6,264.9 594.4,265.7 594, 264.5 C 593.6,263.3 592.6,260.9 592, 259.5 C 591.4,258.1 591.4,258.3 591, 257.5 C 590.6,256.7 590.6,257.1 590, 255.5 C 589.4,253.9 588.6,251.3 588, 249.5 C 587.4,247.7 587.2,247.9 587, 246.5 C 586.8,245.1 587.2,243.9 587, 242.5 C 586.8,241.1 586.2,240.5 586, 239.5 C 585.8,238.5 586,238.5 586, 237.5 C 586,236.5 585.8,235.1 586, 234.5 C 586.2,233.9 586.6,234.5 587, 234.5 C 587.4,234.5 587.6,234.5 588, 234.5 C 588.4,234.5 588.6,234.5 589, 234.5 C 589.4,234.5 589.6,234.5 590, 234.5 C 590.4,234.5 590.8,234.3 591, 234.5 C 591.2,234.7 590.8,235.3 591, 235.5 C 591.2,235.7 591.6,235.1 592, 235.5 C 592.4,235.9 592.6,236.9 593, 237.5 C 593.4,238.1 593.6,238.1 594, 238.5 C 594.4,238.9 594.6,238.9 595, 239.5 C 595.4,240.1 595.8,240.9 596, 241.5 C 596.2,242.1 595.8,242.1 596, 242.5 C 596.2,242.9 596.8,243.1 597, 243.5 C 597.2,243.9 596.8,244.3 597, 244.5 C 597.2,244.7 597.8,244.7 598, 244.5 C 598.2,244.3 598,243.9 598, 243.5 C 598,243.1 598.2,242.7 598, 242.5 C 597.8,242.3 597.2,243.1 597, 242.5 C 596.8,241.9 597.2,241.3 597, 239.5 C 596.8,237.7 596.4,235.9 596, 233.5 C 595.6,231.1 595.2,229.3 595, 227.5 C 594.8,225.7 595,225.9 595, 224.5 C 595,223.1 595,221.5 595, 220.5 C 595,219.5 595,219.9 595, 219.5 C 595,219.1 594.8,218.7 595, 218.5 C 595.2,218.3 595.4,218.5 596, 218.5 C 596.6,218.5 597.4,218.3 598, 218.5 C 598.6,218.7 598.4,219.1 599, 219.5 C 599.6,219.9 600.4,220.1 601, 220.5 C 601.6,220.9 601.4,220.9 602, 221.5 C 602.6,222.1 603.4,222.9 604, 223.5 C 604.6,224.1 604.4,223.9 605, 224.5 C 605.6,225.1 606.2,225.7 607, 226.5 C 607.8,227.3 608.2,227.7 609, 228.5 C 609.8,229.3 610.4,229.9 611, 230.5 C 611.6,231.1 611.4,230.3 612, 231.5 C 612.6,232.7 613,234.5 614, 236.5 C 615,238.5 616.2,240.1 617, 241.5 C 617.8,242.9 617.6,242.7 618, 243.5 C 618.4,244.3 618.6,244.7 619, 245.5 C 619.4,246.3 619.6,246.9 620, 247.5 C 620.4,248.1 620.8,248.3 621, 248.5"
      fill="none" stroke-linecap="round" stroke="black" stroke-width="3"></path>
    <path id="react-sketch-canvas__15"
      d="M 621,248.5 C 620.8,248.3 620.6,248.5 620, 247.5 C 619.4,246.5 618.6,244.9 618, 243.5 C 617.4,242.1 617.4,242.1 617, 240.5 C 616.6,238.9 616.4,237.7 616, 235.5 C 615.6,233.3 615.4,231.3 615, 229.5 C 614.6,227.7 614.4,228.1 614, 226.5 C 613.6,224.9 613.4,223.5 613, 221.5 C 612.6,219.5 612.4,218.1 612, 216.5 C 611.6,214.9 611.8,215.7 611, 213.5 C 610.2,211.3 609.2,208.9 608, 205.5 C 606.8,202.1 605.6,198.5 605, 196.5 C 604.4,194.5 605.2,195.9 605, 195.5 C 604.8,195.1 604.2,194.7 604, 194.5"
      fill="none" stroke-linecap="round" stroke="black" stroke-width="3"></path>
    <path id="react-sketch-canvas__16"
      d="M 643,234.5 C 642.6,234.1 642,233.7 641, 232.5 C 640,231.3 640,231.5 638, 228.5 C 636,225.5 633.4,221.3 631, 217.5 C 628.6,213.7 629.2,214.9 626, 209.5 C 622.8,204.1 620.6,200.3 615, 190.5 C 609.4,180.7 603.2,169.9 598, 160.5 C 592.8,151.1 591.4,148.1 589, 143.5 C 586.6,138.9 587.8,140.9 586, 137.5 C 584.2,134.1 581.4,129.1 580, 126.5 C 578.6,123.9 579.4,125.3 579, 124.5 C 578.6,123.7 578.2,123.1 578, 122.5 C 577.8,121.9 578.2,121.7 578, 121.5 C 577.8,121.3 577.2,121.7 577, 121.5 C 576.8,121.3 577,120.7 577, 120.5"
      fill="none" stroke-linecap="round" stroke="black" stroke-width="3"></path>
    <path id="react-sketch-canvas__17"
      d="M 643,180.5 C 643.4,180.5 643.8,180.5 645, 180.5 C 646.2,180.5 647.6,180.5 649, 180.5 C 650.4,180.5 650.2,180.3 652, 180.5 C 653.8,180.7 656.2,181.3 658, 181.5 C 659.8,181.7 659.2,181.1 661, 181.5 C 662.8,181.9 665.2,182.9 667, 183.5 C 668.8,184.1 668.4,183.9 670, 184.5 C 671.6,185.1 673.6,185.9 675, 186.5 C 676.4,187.1 676,187.1 677, 187.5 C 678,187.9 679.4,188.1 680, 188.5 C 680.6,188.9 679.8,189.1 680, 189.5 C 680.2,189.9 680.6,189.9 681, 190.5 C 681.4,191.1 681.8,191.9 682, 192.5 C 682.2,193.1 682,192.9 682, 193.5 C 682,194.1 682,194.9 682, 195.5 C 682,196.1 682,196.1 682, 196.5 C 682,196.9 682.4,196.5 682, 197.5 C 681.6,198.5 680.8,200.1 680, 201.5 C 679.2,202.9 679.2,202.9 678, 204.5 C 676.8,206.1 675.4,208.1 674, 209.5 C 672.6,210.9 672.8,210.5 671, 211.5 C 669.2,212.5 666.8,213.9 665, 214.5 C 663.2,215.1 664.2,214.3 662, 214.5 C 659.8,214.7 656.4,215.5 654, 215.5 C 651.6,215.5 652.4,215.3 650, 214.5 C 647.6,213.7 644.8,212.9 642, 211.5 C 639.2,210.1 637.6,208.7 636, 207.5 C 634.4,206.3 635,206.5 634, 205.5 C 633,204.5 631.8,203.3 631, 202.5 C 630.2,201.7 630.6,202.1 630, 201.5 C 629.4,200.9 628.6,200.1 628, 199.5 C 627.4,198.9 627.2,199.1 627, 198.5 C 626.8,197.9 627,197.3 627, 196.5 C 627,195.7 626.6,195.7 627, 194.5 C 627.4,193.3 628.4,191.7 629, 190.5 C 629.6,189.3 629.4,189.1 630, 188.5 C 630.6,187.9 631.2,187.9 632, 187.5 C 632.8,187.1 632.6,187.1 634, 186.5 C 635.4,185.9 637.4,185.1 639, 184.5 C 640.6,183.9 640,183.9 642, 183.5 C 644,183.1 645.2,182.9 649, 182.5 C 652.8,182.1 658.2,181.7 661, 181.5 C 663.8,181.3 662.6,181.5 663, 181.5"
      fill="none" stroke-linecap="round" stroke="black" stroke-width="3"></path>
  </g>
</svg>